<svg width="175" height="55" viewBox="0 0 175 55" fill="none" xmlns="http://www.w3.org/2000/svg">
<path d="M43.6421 6.57888C43.2114 5.68762 42.4159 5.05356 41.4528 4.83224L20.6367 0.0828095C19.6737 -0.138512 18.6807 0.0887906 17.9091 0.704901L1.21428 14.0201C0.442644 14.6362 0 15.5514 0 16.5383V37.8928C0 38.8798 0.442644 39.795 1.21428 40.4111L17.9091 53.7263C18.4893 54.1868 19.1891 54.4321 19.9129 54.4321C20.1522 54.4321 20.3974 54.4022 20.6367 54.3483L41.4588 49.5989C42.4219 49.3776 43.2174 48.7435 43.6421 47.8583L52.9077 28.6213C53.3324 27.73 53.3324 26.7131 52.9077 25.8278L43.6421 6.57888ZM4.39651 37.3306V17.1006L20.206 4.49129L37.9177 8.53488L31.1345 32.4316L21.2708 12.1239C20.8401 11.2386 19.9368 10.7182 18.9559 10.8019C17.9749 10.8857 17.1673 11.5496 16.8922 12.4947L8.69732 40.764L4.39651 37.3306ZM39.9275 45.4417L20.206 49.9399L12.4179 43.7249L19.6378 18.8114L29.5135 39.1609C29.9382 40.0343 30.8773 40.5666 31.8403 40.4769C32.8094 40.3872 33.6348 39.6993 33.892 38.7721L41.4469 12.1598L48.6966 27.2096L39.9275 45.4417Z" fill="#5F53A3"/>
<path d="M71.397 32.1325C70.8945 32.294 70.3083 32.3718 69.6264 32.3718C68.7232 32.3718 67.9216 32.1385 67.2218 31.6659C66.5219 31.1994 65.9716 30.5414 65.5768 29.698C65.182 28.8545 64.9847 27.8676 64.9847 26.743C64.9847 25.5646 65.188 24.5597 65.5888 23.7283C65.9896 22.8968 66.5399 22.2628 67.2457 21.8201C67.9456 21.3775 68.7411 21.1562 69.6264 21.1562C70.2365 21.1562 70.7689 21.216 71.2175 21.3356C71.6662 21.4552 72.1088 21.6168 72.5395 21.8201L73.1436 20.2111C72.6412 19.9838 72.1088 19.8043 71.5405 19.6787C70.9723 19.5531 70.3382 19.4873 69.6444 19.4873C68.2985 19.4873 67.1201 19.7983 66.1152 20.4204C65.1103 21.0425 64.3327 21.9099 63.7823 23.0105C63.232 24.1171 62.9629 25.3852 62.9629 26.8208C62.9629 28.3102 63.232 29.5903 63.7764 30.667C64.3147 31.7437 65.0744 32.5751 66.0434 33.1613C67.0124 33.7416 68.131 34.0347 69.3931 34.0347C70.2665 34.0347 71.0321 33.9449 71.6961 33.7655C72.354 33.586 72.9402 33.3587 73.4547 33.0896L72.8505 31.5044C72.384 31.7676 71.8994 31.977 71.397 32.1325Z" fill="#5F53A3"/>
<path d="M84.8019 31.0917V23.3514H82.9296V31.2113C82.5109 31.5882 82.0383 31.8872 81.506 32.1086C80.9736 32.3299 80.4173 32.4376 79.8491 32.4376C79.1552 32.4376 78.6288 32.2222 78.2699 31.7856C77.911 31.3489 77.7316 30.7208 77.7316 29.9073V23.3514H75.8593V30.1466C75.8593 31.0977 76.0328 31.8573 76.3797 32.4256C76.7266 32.9939 77.1753 33.4066 77.7316 33.6638C78.2879 33.921 78.874 34.0466 79.5021 34.0466C80.2379 34.0466 80.9258 33.8971 81.5658 33.592C82.2058 33.2929 82.7681 32.8981 83.2526 32.4136C83.5577 33.4066 84.3532 33.9031 85.6453 33.9031L86.0401 32.4974C85.735 32.4974 85.4539 32.4076 85.1967 32.2282C84.9275 32.0428 84.8019 31.6659 84.8019 31.0917Z" fill="#5F53A3"/>
<path d="M93.8162 23.1122C93.2061 23.1122 92.6737 23.2318 92.2131 23.4651C91.7526 23.6984 91.3757 24.0094 91.0706 24.3922L90.3409 25.3074V23.3514H88.5284V33.8014H90.4007V28.9204C90.4007 28.0111 90.5502 27.2575 90.8493 26.6713C91.1484 26.0791 91.5312 25.6484 91.9918 25.3673C92.4584 25.0861 92.9489 24.9426 93.4573 24.9426C93.8162 24.9426 94.1273 24.9964 94.3964 25.1041L94.9587 23.2378C94.8211 23.1959 94.6477 23.166 94.4383 23.1481C94.229 23.1241 94.0256 23.1122 93.8162 23.1122Z" fill="#5F53A3"/>
<path d="M99.8696 27.5326C99.0202 27.2634 98.452 27.0182 98.1649 26.7909C97.8718 26.5636 97.7282 26.2884 97.7282 25.9654C97.7282 25.6304 97.9136 25.3194 98.2905 25.0383C98.6673 24.7571 99.2117 24.6136 99.9354 24.6136C100.516 24.6136 101.048 24.6794 101.527 24.8169C102.005 24.9485 102.43 25.128 102.807 25.3373L103.327 23.8479C102.896 23.6326 102.412 23.4531 101.868 23.3155C101.329 23.172 100.707 23.1062 100.013 23.1062C98.7212 23.1062 97.7103 23.3873 96.9865 23.9376C96.2567 24.4939 95.8918 25.1758 95.8918 25.9774C95.8918 26.7969 96.1431 27.4369 96.6515 27.8975C97.16 28.3581 97.9196 28.7588 98.9305 29.0938C99.6663 29.3331 100.229 29.5604 100.617 29.7697C101.006 29.9791 101.275 30.1885 101.419 30.4038C101.562 30.6191 101.64 30.8644 101.64 31.1455C101.64 31.5343 101.443 31.8514 101.048 32.1026C100.653 32.3478 100.067 32.4734 99.2894 32.4734C98.6673 32.4734 98.0811 32.3777 97.5308 32.1803C96.9805 31.9889 96.5259 31.7437 96.167 31.4446L95.3774 32.952C95.8081 33.275 96.3524 33.5322 97.0104 33.7356C97.6684 33.9389 98.4101 34.0347 99.2296 34.0347C100.546 34.0347 101.598 33.7655 102.382 33.2212C103.166 32.6768 103.56 31.9411 103.56 31.002C103.56 30.2004 103.291 29.5305 102.747 28.9921C102.202 28.4657 101.245 27.9752 99.8696 27.5326Z" fill="#5F53A3"/>
<path d="M113.346 23.7761C112.533 23.3335 111.624 23.1122 110.607 23.1122C109.596 23.1122 108.681 23.3335 107.861 23.7761C107.042 24.2188 106.396 24.8468 105.923 25.6663C105.451 26.4858 105.217 27.4548 105.217 28.5794C105.217 29.6501 105.451 30.6012 105.917 31.4207C106.384 32.2461 107.024 32.8862 107.843 33.3528C108.663 33.8133 109.584 34.0466 110.613 34.0466C111.642 34.0466 112.557 33.8193 113.37 33.3647C114.184 32.9101 114.824 32.2701 115.296 31.4446C115.769 30.6191 116.002 29.6501 116.002 28.5375C116.002 27.4249 115.763 26.4619 115.284 25.6544C114.806 24.8409 114.16 24.2188 113.346 23.7761ZM113.173 31.3609C112.563 32.0787 111.707 32.4376 110.613 32.4376C109.949 32.4376 109.351 32.2581 108.83 31.9052C108.31 31.5523 107.897 31.0737 107.592 30.4756C107.287 29.8774 107.131 29.2314 107.131 28.5375C107.131 27.3831 107.436 26.4619 108.047 25.762C108.657 25.0682 109.512 24.7153 110.607 24.7153C111.271 24.7153 111.869 24.8947 112.389 25.2476C112.91 25.6005 113.322 26.0731 113.627 26.6533C113.933 27.2335 114.088 27.8736 114.088 28.5734C114.088 29.7159 113.783 30.6431 113.173 31.3609Z" fill="#5F53A3"/>
<path d="M127.762 31.4326L121.332 19.7325H118.712V33.8014H120.584V22.185L127.056 33.8014H129.634V19.7325H127.762V31.4326Z" fill="#5F53A3"/>
<path d="M139.929 23.7642C139.241 23.3275 138.38 23.1122 137.339 23.1122C136.37 23.1122 135.514 23.3514 134.779 23.824C134.043 24.3025 133.469 24.9485 133.062 25.774C132.655 26.5995 132.446 27.5326 132.446 28.5794C132.446 30.3081 132.9 31.654 133.81 32.611C134.719 33.5681 135.951 34.0466 137.506 34.0466C138.284 34.0466 138.984 33.9748 139.606 33.8373C140.228 33.6937 140.79 33.5202 141.293 33.3049L140.856 31.7557C140.395 31.959 139.917 32.1205 139.42 32.2462C138.918 32.3718 138.362 32.4376 137.734 32.4376C136.776 32.4376 136.005 32.1624 135.425 31.6121C134.844 31.0618 134.485 30.3021 134.366 29.3211H141.945C141.986 28.8785 142.004 28.4239 142.004 27.9573C142.004 27.072 141.831 26.2645 141.484 25.5228C141.131 24.787 140.617 24.2008 139.929 23.7642ZM134.342 27.8556C134.456 26.8268 134.773 26.0372 135.299 25.4929C135.825 24.9485 136.489 24.6794 137.297 24.6794C138.224 24.6794 138.954 24.9545 139.48 25.5048C140.007 26.0551 140.27 26.8387 140.27 27.8556H134.342Z" fill="#5F53A3"/>
<path d="M152.676 24.3564L151.282 23.2139L147.992 27.3113L144.642 23.1301L143.189 24.3564L146.891 28.4957L143.039 32.8204L144.373 33.9449L147.974 29.6202L151.617 33.9868L153.035 32.8204L149.075 28.4179L152.676 24.3564Z" fill="#5F53A3"/>
<path d="M163.754 31.0917V23.3514H161.881V31.2113C161.463 31.5882 160.99 31.8872 160.458 32.1086C159.925 32.3299 159.369 32.4376 158.801 32.4376C158.107 32.4376 157.581 32.2222 157.222 31.7856C156.863 31.3489 156.683 30.7208 156.683 29.9073V23.3514H154.811V30.1466C154.811 31.0977 154.985 31.8573 155.331 32.4256C155.678 32.9939 156.127 33.4066 156.683 33.6638C157.24 33.921 157.826 34.0466 158.454 34.0466C159.19 34.0466 159.878 33.8971 160.518 33.592C161.158 33.2929 161.72 32.8981 162.204 32.4136C162.509 33.4066 163.305 33.9031 164.597 33.9031L164.992 32.4974C164.687 32.4974 164.406 32.4076 164.148 32.2282C163.879 32.0428 163.754 31.6659 163.754 31.0917Z" fill="#5F53A3"/>
<path d="M173.911 28.9981C173.372 28.4598 172.409 27.9752 171.039 27.5326C170.19 27.2634 169.622 27.0182 169.335 26.7909C169.041 26.5636 168.898 26.2884 168.898 25.9654C168.898 25.6304 169.083 25.3194 169.46 25.0383C169.837 24.7571 170.381 24.6136 171.105 24.6136C171.685 24.6136 172.218 24.6794 172.696 24.8169C173.175 24.9485 173.599 25.128 173.976 25.3373L174.497 23.8479C174.066 23.6326 173.582 23.4531 173.037 23.3155C172.499 23.172 171.877 23.1062 171.183 23.1062C169.891 23.1062 168.88 23.3873 168.156 23.9376C167.426 24.4939 167.062 25.1758 167.062 25.9774C167.062 26.7969 167.313 27.4369 167.821 27.8975C168.33 28.3581 169.089 28.7588 170.1 29.0938C170.836 29.3331 171.398 29.5604 171.787 29.7697C172.176 29.9791 172.445 30.1885 172.589 30.4038C172.732 30.6191 172.81 30.8644 172.81 31.1455C172.81 31.5343 172.613 31.8514 172.218 32.1026C171.823 32.3478 171.237 32.4734 170.459 32.4734C169.837 32.4734 169.251 32.3777 168.701 32.1803C168.15 31.9889 167.696 31.7437 167.337 31.4446L166.547 32.952C166.978 33.275 167.522 33.5322 168.18 33.7356C168.838 33.9389 169.58 34.0347 170.399 34.0347C171.715 34.0347 172.768 33.7655 173.552 33.2212C174.335 32.6768 174.73 31.9411 174.73 31.002C174.724 30.2064 174.449 29.5365 173.911 28.9981Z" fill="#5F53A3"/>
</svg>
